<?xml version="1.0" encoding="utf-8"?>
<!-- Generator: Adobe Illustrator 26.5.0, SVG Export Plug-In . SVG Version: 6.00 Build 0)  -->
<svg version="1.1" id="圖層_1" xmlns="http://www.w3.org/2000/svg" xmlns:xlink="http://www.w3.org/1999/xlink" x="0px" y="0px"
	 viewBox="0 0 370 370" style="enable-background:new 0 0 370 370;" xml:space="preserve">
<style type="text/css">
	.st0{fill:#FFFFFF;}
</style>
<g id="quickmark" transform="translate(40,40)">
	<rect class="st0" width="10" height="10"/>
	<rect x="10" class="st0" width="10" height="10"/>
	<rect x="20" class="st0" width="10" height="10"/>
	<rect x="30" class="st0" width="10" height="10"/>
	<rect x="40" class="st0" width="10" height="10"/>
	<rect x="50" class="st0" width="10" height="10"/>
	<rect x="60" class="st0" width="10" height="10"/>
	<rect x="80" class="st0" width="10" height="10"/>
	<rect x="90" class="st0" width="10" height="10"/>
	<rect x="100" class="st0" width="10" height="10"/>
	<rect x="110" class="st0" width="10" height="10"/>
	<rect x="120" class="st0" width="10" height="10"/>
	<rect x="130" class="st0" width="10" height="10"/>
	<rect x="140" class="st0" width="10" height="10"/>
	<rect x="170" class="st0" width="10" height="10"/>
	<rect x="180" class="st0" width="10" height="10"/>
	<rect x="220" class="st0" width="10" height="10"/>
	<rect x="230" class="st0" width="10" height="10"/>
	<rect x="240" class="st0" width="10" height="10"/>
	<rect x="250" class="st0" width="10" height="10"/>
	<rect x="260" class="st0" width="10" height="10"/>
	<rect x="270" class="st0" width="10" height="10"/>
	<rect x="280" class="st0" width="10" height="10"/>
	<rect y="10" class="st0" width="10" height="10"/>
	<rect x="60" y="10" class="st0" width="10" height="10"/>
	<rect x="80" y="10" class="st0" width="10" height="10"/>
	<rect x="90" y="10" class="st0" width="10" height="10"/>
	<rect x="100" y="10" class="st0" width="10" height="10"/>
	<rect x="120" y="10" class="st0" width="10" height="10"/>
	<rect x="130" y="10" class="st0" width="10" height="10"/>
	<rect x="170" y="10" class="st0" width="10" height="10"/>
	<rect x="180" y="10" class="st0" width="10" height="10"/>
	<rect x="190" y="10" class="st0" width="10" height="10"/>
	<rect x="200" y="10" class="st0" width="10" height="10"/>
	<rect x="220" y="10" class="st0" width="10" height="10"/>
	<rect x="280" y="10" class="st0" width="10" height="10"/>
	<rect y="20" class="st0" width="10" height="10"/>
	<rect x="20" y="20" class="st0" width="10" height="10"/>
	<rect x="30" y="20" class="st0" width="10" height="10"/>
	<rect x="40" y="20" class="st0" width="10" height="10"/>
	<rect x="60" y="20" class="st0" width="10" height="10"/>
	<rect x="80" y="20" class="st0" width="10" height="10"/>
	<rect x="90" y="20" class="st0" width="10" height="10"/>
	<rect x="100" y="20" class="st0" width="10" height="10"/>
	<rect x="130" y="20" class="st0" width="10" height="10"/>
	<rect x="140" y="20" class="st0" width="10" height="10"/>
	<rect x="160" y="20" class="st0" width="10" height="10"/>
	<rect x="200" y="20" class="st0" width="10" height="10"/>
	<rect x="220" y="20" class="st0" width="10" height="10"/>
	<rect x="240" y="20" class="st0" width="10" height="10"/>
	<rect x="250" y="20" class="st0" width="10" height="10"/>
	<rect x="260" y="20" class="st0" width="10" height="10"/>
	<rect x="280" y="20" class="st0" width="10" height="10"/>
	<rect y="30" class="st0" width="10" height="10"/>
	<rect x="20" y="30" class="st0" width="10" height="10"/>
	<rect x="30" y="30" class="st0" width="10" height="10"/>
	<rect x="40" y="30" class="st0" width="10" height="10"/>
	<rect x="60" y="30" class="st0" width="10" height="10"/>
	<rect x="100" y="30" class="st0" width="10" height="10"/>
	<rect x="110" y="30" class="st0" width="10" height="10"/>
	<rect x="120" y="30" class="st0" width="10" height="10"/>
	<rect x="130" y="30" class="st0" width="10" height="10"/>
	<rect x="170" y="30" class="st0" width="10" height="10"/>
	<rect x="190" y="30" class="st0" width="10" height="10"/>
	<rect x="200" y="30" class="st0" width="10" height="10"/>
	<rect x="220" y="30" class="st0" width="10" height="10"/>
	<rect x="240" y="30" class="st0" width="10" height="10"/>
	<rect x="250" y="30" class="st0" width="10" height="10"/>
	<rect x="260" y="30" class="st0" width="10" height="10"/>
	<rect x="280" y="30" class="st0" width="10" height="10"/>
	<rect y="40" class="st0" width="10" height="10"/>
	<rect x="20" y="40" class="st0" width="10" height="10"/>
	<rect x="30" y="40" class="st0" width="10" height="10"/>
	<rect x="40" y="40" class="st0" width="10" height="10"/>
	<rect x="60" y="40" class="st0" width="10" height="10"/>
	<rect x="80" y="40" class="st0" width="10" height="10"/>
	<rect x="90" y="40" class="st0" width="10" height="10"/>
	<rect x="110" y="40" class="st0" width="10" height="10"/>
	<rect x="140" y="40" class="st0" width="10" height="10"/>
	<rect x="160" y="40" class="st0" width="10" height="10"/>
	<rect x="180" y="40" class="st0" width="10" height="10"/>
	<rect x="190" y="40" class="st0" width="10" height="10"/>
	<rect x="200" y="40" class="st0" width="10" height="10"/>
	<rect x="220" y="40" class="st0" width="10" height="10"/>
	<rect x="240" y="40" class="st0" width="10" height="10"/>
	<rect x="250" y="40" class="st0" width="10" height="10"/>
	<rect x="260" y="40" class="st0" width="10" height="10"/>
	<rect x="280" y="40" class="st0" width="10" height="10"/>
	<rect y="50" class="st0" width="10" height="10"/>
	<rect x="60" y="50" class="st0" width="10" height="10"/>
	<rect x="140" y="50" class="st0" width="10" height="10"/>
	<rect x="200" y="50" class="st0" width="10" height="10"/>
	<rect x="220" y="50" class="st0" width="10" height="10"/>
	<rect x="280" y="50" class="st0" width="10" height="10"/>
	<rect y="60" class="st0" width="10" height="10"/>
	<rect x="10" y="60" class="st0" width="10" height="10"/>
	<rect x="20" y="60" class="st0" width="10" height="10"/>
	<rect x="30" y="60" class="st0" width="10" height="10"/>
	<rect x="40" y="60" class="st0" width="10" height="10"/>
	<rect x="50" y="60" class="st0" width="10" height="10"/>
	<rect x="60" y="60" class="st0" width="10" height="10"/>
	<rect x="80" y="60" class="st0" width="10" height="10"/>
	<rect x="100" y="60" class="st0" width="10" height="10"/>
	<rect x="120" y="60" class="st0" width="10" height="10"/>
	<rect x="140" y="60" class="st0" width="10" height="10"/>
	<rect x="160" y="60" class="st0" width="10" height="10"/>
	<rect x="180" y="60" class="st0" width="10" height="10"/>
	<rect x="200" y="60" class="st0" width="10" height="10"/>
	<rect x="220" y="60" class="st0" width="10" height="10"/>
	<rect x="230" y="60" class="st0" width="10" height="10"/>
	<rect x="240" y="60" class="st0" width="10" height="10"/>
	<rect x="250" y="60" class="st0" width="10" height="10"/>
	<rect x="260" y="60" class="st0" width="10" height="10"/>
	<rect x="270" y="60" class="st0" width="10" height="10"/>
	<rect x="280" y="60" class="st0" width="10" height="10"/>
	<rect x="90" y="70" class="st0" width="10" height="10"/>
	<rect x="100" y="70" class="st0" width="10" height="10"/>
	<rect x="120" y="70" class="st0" width="10" height="10"/>
	<rect x="130" y="70" class="st0" width="10" height="10"/>
	<rect x="150" y="70" class="st0" width="10" height="10"/>
	<rect x="160" y="70" class="st0" width="10" height="10"/>
	<rect x="190" y="70" class="st0" width="10" height="10"/>
	<rect y="80" class="st0" width="10" height="10"/>
	<rect x="30" y="80" class="st0" width="10" height="10"/>
	<rect x="40" y="80" class="st0" width="10" height="10"/>
	<rect x="50" y="80" class="st0" width="10" height="10"/>
	<rect x="60" y="80" class="st0" width="10" height="10"/>
	<rect x="70" y="80" class="st0" width="10" height="10"/>
	<rect x="80" y="80" class="st0" width="10" height="10"/>
	<rect x="140" y="80" class="st0" width="10" height="10"/>
	<rect x="160" y="80" class="st0" width="10" height="10"/>
	<rect x="170" y="80" class="st0" width="10" height="10"/>
	<rect x="210" y="80" class="st0" width="10" height="10"/>
	<rect x="240" y="80" class="st0" width="10" height="10"/>
	<rect x="260" y="80" class="st0" width="10" height="10"/>
	<rect x="270" y="80" class="st0" width="10" height="10"/>
	<rect x="280" y="80" class="st0" width="10" height="10"/>
	<rect x="10" y="90" class="st0" width="10" height="10"/>
	<rect x="20" y="90" class="st0" width="10" height="10"/>
	<rect x="30" y="90" class="st0" width="10" height="10"/>
	<rect x="40" y="90" class="st0" width="10" height="10"/>
	<rect x="50" y="90" class="st0" width="10" height="10"/>
	<rect x="70" y="90" class="st0" width="10" height="10"/>
	<rect x="110" y="90" class="st0" width="10" height="10"/>
	<rect x="120" y="90" class="st0" width="10" height="10"/>
	<rect x="130" y="90" class="st0" width="10" height="10"/>
	<rect x="140" y="90" class="st0" width="10" height="10"/>
	<rect x="150" y="90" class="st0" width="10" height="10"/>
	<rect x="160" y="90" class="st0" width="10" height="10"/>
	<rect x="170" y="90" class="st0" width="10" height="10"/>
	<rect x="180" y="90" class="st0" width="10" height="10"/>
	<rect x="190" y="90" class="st0" width="10" height="10"/>
	<rect x="230" y="90" class="st0" width="10" height="10"/>
	<rect x="240" y="90" class="st0" width="10" height="10"/>
	<rect x="260" y="90" class="st0" width="10" height="10"/>
	<rect x="270" y="90" class="st0" width="10" height="10"/>
	<rect y="100" class="st0" width="10" height="10"/>
	<rect x="40" y="100" class="st0" width="10" height="10"/>
	<rect x="50" y="100" class="st0" width="10" height="10"/>
	<rect x="60" y="100" class="st0" width="10" height="10"/>
	<rect x="70" y="100" class="st0" width="10" height="10"/>
	<rect x="80" y="100" class="st0" width="10" height="10"/>
	<rect x="90" y="100" class="st0" width="10" height="10"/>
	<rect x="110" y="100" class="st0" width="10" height="10"/>
	<rect x="120" y="100" class="st0" width="10" height="10"/>
	<rect x="150" y="100" class="st0" width="10" height="10"/>
	<rect x="160" y="100" class="st0" width="10" height="10"/>
	<rect x="170" y="100" class="st0" width="10" height="10"/>
	<rect x="210" y="100" class="st0" width="10" height="10"/>
	<rect x="220" y="100" class="st0" width="10" height="10"/>
	<rect x="230" y="100" class="st0" width="10" height="10"/>
	<rect x="260" y="100" class="st0" width="10" height="10"/>
	<rect y="110" class="st0" width="10" height="10"/>
	<rect x="50" y="110" class="st0" width="10" height="10"/>
	<rect x="70" y="110" class="st0" width="10" height="10"/>
	<rect x="80" y="110" class="st0" width="10" height="10"/>
	<rect x="110" y="110" class="st0" width="10" height="10"/>
	<rect x="120" y="110" class="st0" width="10" height="10"/>
	<rect x="150" y="110" class="st0" width="10" height="10"/>
	<rect x="170" y="110" class="st0" width="10" height="10"/>
	<rect x="210" y="110" class="st0" width="10" height="10"/>
	<rect x="220" y="110" class="st0" width="10" height="10"/>
	<rect x="250" y="110" class="st0" width="10" height="10"/>
	<rect x="280" y="110" class="st0" width="10" height="10"/>
	<rect x="10" y="120" class="st0" width="10" height="10"/>
	<rect x="50" y="120" class="st0" width="10" height="10"/>
	<rect x="60" y="120" class="st0" width="10" height="10"/>
	<rect x="70" y="120" class="st0" width="10" height="10"/>
	<rect x="80" y="120" class="st0" width="10" height="10"/>
	<rect x="90" y="120" class="st0" width="10" height="10"/>
	<rect x="100" y="120" class="st0" width="10" height="10"/>
	<rect x="150" y="120" class="st0" width="10" height="10"/>
	<rect x="180" y="120" class="st0" width="10" height="10"/>
	<rect x="190" y="120" class="st0" width="10" height="10"/>
	<rect x="200" y="120" class="st0" width="10" height="10"/>
	<rect x="220" y="120" class="st0" width="10" height="10"/>
	<rect x="230" y="120" class="st0" width="10" height="10"/>
	<rect x="280" y="120" class="st0" width="10" height="10"/>
	<rect y="130" class="st0" width="10" height="10"/>
	<rect x="30" y="130" class="st0" width="10" height="10"/>
	<rect x="50" y="130" class="st0" width="10" height="10"/>
	<rect x="110" y="130" class="st0" width="10" height="10"/>
	<rect x="120" y="130" class="st0" width="10" height="10"/>
	<rect x="130" y="130" class="st0" width="10" height="10"/>
	<rect x="150" y="130" class="st0" width="10" height="10"/>
	<rect x="160" y="130" class="st0" width="10" height="10"/>
	<rect x="170" y="130" class="st0" width="10" height="10"/>
	<rect x="180" y="130" class="st0" width="10" height="10"/>
	<rect x="220" y="130" class="st0" width="10" height="10"/>
	<rect x="240" y="130" class="st0" width="10" height="10"/>
	<rect x="250" y="130" class="st0" width="10" height="10"/>
	<rect x="260" y="130" class="st0" width="10" height="10"/>
	<rect x="270" y="130" class="st0" width="10" height="10"/>
	<rect x="280" y="130" class="st0" width="10" height="10"/>
	<rect x="40" y="140" class="st0" width="10" height="10"/>
	<rect x="60" y="140" class="st0" width="10" height="10"/>
	<rect x="80" y="140" class="st0" width="10" height="10"/>
	<rect x="120" y="140" class="st0" width="10" height="10"/>
	<rect x="150" y="140" class="st0" width="10" height="10"/>
	<rect x="160" y="140" class="st0" width="10" height="10"/>
	<rect x="170" y="140" class="st0" width="10" height="10"/>
	<rect x="190" y="140" class="st0" width="10" height="10"/>
	<rect x="230" y="140" class="st0" width="10" height="10"/>
	<rect x="260" y="140" class="st0" width="10" height="10"/>
	<rect x="280" y="140" class="st0" width="10" height="10"/>
	<rect y="150" class="st0" width="10" height="10"/>
	<rect x="10" y="150" class="st0" width="10" height="10"/>
	<rect x="80" y="150" class="st0" width="10" height="10"/>
	<rect x="90" y="150" class="st0" width="10" height="10"/>
	<rect x="110" y="150" class="st0" width="10" height="10"/>
	<rect x="120" y="150" class="st0" width="10" height="10"/>
	<rect x="190" y="150" class="st0" width="10" height="10"/>
	<rect x="200" y="150" class="st0" width="10" height="10"/>
	<rect x="230" y="150" class="st0" width="10" height="10"/>
	<rect x="240" y="150" class="st0" width="10" height="10"/>
	<rect x="260" y="150" class="st0" width="10" height="10"/>
	<rect x="280" y="150" class="st0" width="10" height="10"/>
	<rect x="40" y="160" class="st0" width="10" height="10"/>
	<rect x="50" y="160" class="st0" width="10" height="10"/>
	<rect x="60" y="160" class="st0" width="10" height="10"/>
	<rect x="70" y="160" class="st0" width="10" height="10"/>
	<rect x="100" y="160" class="st0" width="10" height="10"/>
	<rect x="110" y="160" class="st0" width="10" height="10"/>
	<rect x="130" y="160" class="st0" width="10" height="10"/>
	<rect x="140" y="160" class="st0" width="10" height="10"/>
	<rect x="150" y="160" class="st0" width="10" height="10"/>
	<rect x="160" y="160" class="st0" width="10" height="10"/>
	<rect x="250" y="160" class="st0" width="10" height="10"/>
	<rect x="20" y="170" class="st0" width="10" height="10"/>
	<rect x="40" y="170" class="st0" width="10" height="10"/>
	<rect x="50" y="170" class="st0" width="10" height="10"/>
	<rect x="70" y="170" class="st0" width="10" height="10"/>
	<rect x="90" y="170" class="st0" width="10" height="10"/>
	<rect x="130" y="170" class="st0" width="10" height="10"/>
	<rect x="150" y="170" class="st0" width="10" height="10"/>
	<rect x="170" y="170" class="st0" width="10" height="10"/>
	<rect x="190" y="170" class="st0" width="10" height="10"/>
	<rect x="200" y="170" class="st0" width="10" height="10"/>
	<rect x="210" y="170" class="st0" width="10" height="10"/>
	<rect x="240" y="170" class="st0" width="10" height="10"/>
	<rect x="260" y="170" class="st0" width="10" height="10"/>
	<rect x="270" y="170" class="st0" width="10" height="10"/>
	<rect x="20" y="180" class="st0" width="10" height="10"/>
	<rect x="30" y="180" class="st0" width="10" height="10"/>
	<rect x="40" y="180" class="st0" width="10" height="10"/>
	<rect x="60" y="180" class="st0" width="10" height="10"/>
	<rect x="70" y="180" class="st0" width="10" height="10"/>
	<rect x="110" y="180" class="st0" width="10" height="10"/>
	<rect x="150" y="180" class="st0" width="10" height="10"/>
	<rect x="180" y="180" class="st0" width="10" height="10"/>
	<rect x="190" y="180" class="st0" width="10" height="10"/>
	<rect x="210" y="180" class="st0" width="10" height="10"/>
	<rect x="220" y="180" class="st0" width="10" height="10"/>
	<rect x="250" y="180" class="st0" width="10" height="10"/>
	<rect x="280" y="180" class="st0" width="10" height="10"/>
	<rect x="30" y="190" class="st0" width="10" height="10"/>
	<rect x="40" y="190" class="st0" width="10" height="10"/>
	<rect x="50" y="190" class="st0" width="10" height="10"/>
	<rect x="70" y="190" class="st0" width="10" height="10"/>
	<rect x="90" y="190" class="st0" width="10" height="10"/>
	<rect x="100" y="190" class="st0" width="10" height="10"/>
	<rect x="130" y="190" class="st0" width="10" height="10"/>
	<rect x="210" y="190" class="st0" width="10" height="10"/>
	<rect x="220" y="190" class="st0" width="10" height="10"/>
	<rect x="230" y="190" class="st0" width="10" height="10"/>
	<rect x="240" y="190" class="st0" width="10" height="10"/>
	<rect x="250" y="190" class="st0" width="10" height="10"/>
	<rect x="260" y="190" class="st0" width="10" height="10"/>
	<rect x="30" y="200" class="st0" width="10" height="10"/>
	<rect x="60" y="200" class="st0" width="10" height="10"/>
	<rect x="80" y="200" class="st0" width="10" height="10"/>
	<rect x="90" y="200" class="st0" width="10" height="10"/>
	<rect x="100" y="200" class="st0" width="10" height="10"/>
	<rect x="110" y="200" class="st0" width="10" height="10"/>
	<rect x="130" y="200" class="st0" width="10" height="10"/>
	<rect x="170" y="200" class="st0" width="10" height="10"/>
	<rect x="190" y="200" class="st0" width="10" height="10"/>
	<rect x="200" y="200" class="st0" width="10" height="10"/>
	<rect x="210" y="200" class="st0" width="10" height="10"/>
	<rect x="220" y="200" class="st0" width="10" height="10"/>
	<rect x="230" y="200" class="st0" width="10" height="10"/>
	<rect x="240" y="200" class="st0" width="10" height="10"/>
	<rect x="250" y="200" class="st0" width="10" height="10"/>
	<rect x="260" y="200" class="st0" width="10" height="10"/>
	<rect x="270" y="200" class="st0" width="10" height="10"/>
	<rect x="80" y="210" class="st0" width="10" height="10"/>
	<rect x="100" y="210" class="st0" width="10" height="10"/>
	<rect x="120" y="210" class="st0" width="10" height="10"/>
	<rect x="130" y="210" class="st0" width="10" height="10"/>
	<rect x="140" y="210" class="st0" width="10" height="10"/>
	<rect x="150" y="210" class="st0" width="10" height="10"/>
	<rect x="200" y="210" class="st0" width="10" height="10"/>
	<rect x="240" y="210" class="st0" width="10" height="10"/>
	<rect x="250" y="210" class="st0" width="10" height="10"/>
	<rect y="220" class="st0" width="10" height="10"/>
	<rect x="10" y="220" class="st0" width="10" height="10"/>
	<rect x="20" y="220" class="st0" width="10" height="10"/>
	<rect x="30" y="220" class="st0" width="10" height="10"/>
	<rect x="40" y="220" class="st0" width="10" height="10"/>
	<rect x="50" y="220" class="st0" width="10" height="10"/>
	<rect x="60" y="220" class="st0" width="10" height="10"/>
	<rect x="80" y="220" class="st0" width="10" height="10"/>
	<rect x="90" y="220" class="st0" width="10" height="10"/>
	<rect x="100" y="220" class="st0" width="10" height="10"/>
	<rect x="110" y="220" class="st0" width="10" height="10"/>
	<rect x="120" y="220" class="st0" width="10" height="10"/>
	<rect x="130" y="220" class="st0" width="10" height="10"/>
	<rect x="150" y="220" class="st0" width="10" height="10"/>
	<rect x="160" y="220" class="st0" width="10" height="10"/>
	<rect x="170" y="220" class="st0" width="10" height="10"/>
	<rect x="190" y="220" class="st0" width="10" height="10"/>
	<rect x="200" y="220" class="st0" width="10" height="10"/>
	<rect x="220" y="220" class="st0" width="10" height="10"/>
	<rect x="240" y="220" class="st0" width="10" height="10"/>
	<rect x="250" y="220" class="st0" width="10" height="10"/>
	<rect y="230" class="st0" width="10" height="10"/>
	<rect x="60" y="230" class="st0" width="10" height="10"/>
	<rect x="80" y="230" class="st0" width="10" height="10"/>
	<rect x="90" y="230" class="st0" width="10" height="10"/>
	<rect x="100" y="230" class="st0" width="10" height="10"/>
	<rect x="110" y="230" class="st0" width="10" height="10"/>
	<rect x="130" y="230" class="st0" width="10" height="10"/>
	<rect x="160" y="230" class="st0" width="10" height="10"/>
	<rect x="170" y="230" class="st0" width="10" height="10"/>
	<rect x="190" y="230" class="st0" width="10" height="10"/>
	<rect x="200" y="230" class="st0" width="10" height="10"/>
	<rect x="240" y="230" class="st0" width="10" height="10"/>
	<rect x="270" y="230" class="st0" width="10" height="10"/>
	<rect x="280" y="230" class="st0" width="10" height="10"/>
	<rect y="240" class="st0" width="10" height="10"/>
	<rect x="20" y="240" class="st0" width="10" height="10"/>
	<rect x="30" y="240" class="st0" width="10" height="10"/>
	<rect x="40" y="240" class="st0" width="10" height="10"/>
	<rect x="60" y="240" class="st0" width="10" height="10"/>
	<rect x="80" y="240" class="st0" width="10" height="10"/>
	<rect x="100" y="240" class="st0" width="10" height="10"/>
	<rect x="120" y="240" class="st0" width="10" height="10"/>
	<rect x="130" y="240" class="st0" width="10" height="10"/>
	<rect x="150" y="240" class="st0" width="10" height="10"/>
	<rect x="160" y="240" class="st0" width="10" height="10"/>
	<rect x="190" y="240" class="st0" width="10" height="10"/>
	<rect x="200" y="240" class="st0" width="10" height="10"/>
	<rect x="210" y="240" class="st0" width="10" height="10"/>
	<rect x="220" y="240" class="st0" width="10" height="10"/>
	<rect x="230" y="240" class="st0" width="10" height="10"/>
	<rect x="240" y="240" class="st0" width="10" height="10"/>
	<rect x="250" y="240" class="st0" width="10" height="10"/>
	<rect x="270" y="240" class="st0" width="10" height="10"/>
	<rect y="250" class="st0" width="10" height="10"/>
	<rect x="20" y="250" class="st0" width="10" height="10"/>
	<rect x="30" y="250" class="st0" width="10" height="10"/>
	<rect x="40" y="250" class="st0" width="10" height="10"/>
	<rect x="60" y="250" class="st0" width="10" height="10"/>
	<rect x="80" y="250" class="st0" width="10" height="10"/>
	<rect x="90" y="250" class="st0" width="10" height="10"/>
	<rect x="130" y="250" class="st0" width="10" height="10"/>
	<rect x="140" y="250" class="st0" width="10" height="10"/>
	<rect x="150" y="250" class="st0" width="10" height="10"/>
	<rect x="160" y="250" class="st0" width="10" height="10"/>
	<rect x="180" y="250" class="st0" width="10" height="10"/>
	<rect x="200" y="250" class="st0" width="10" height="10"/>
	<rect x="210" y="250" class="st0" width="10" height="10"/>
	<rect x="230" y="250" class="st0" width="10" height="10"/>
	<rect x="280" y="250" class="st0" width="10" height="10"/>
	<rect y="260" class="st0" width="10" height="10"/>
	<rect x="20" y="260" class="st0" width="10" height="10"/>
	<rect x="30" y="260" class="st0" width="10" height="10"/>
	<rect x="40" y="260" class="st0" width="10" height="10"/>
	<rect x="60" y="260" class="st0" width="10" height="10"/>
	<rect x="150" y="260" class="st0" width="10" height="10"/>
	<rect x="170" y="260" class="st0" width="10" height="10"/>
	<rect x="180" y="260" class="st0" width="10" height="10"/>
	<rect x="190" y="260" class="st0" width="10" height="10"/>
	<rect x="230" y="260" class="st0" width="10" height="10"/>
	<rect x="240" y="260" class="st0" width="10" height="10"/>
	<rect x="260" y="260" class="st0" width="10" height="10"/>
	<rect x="270" y="260" class="st0" width="10" height="10"/>
	<rect x="280" y="260" class="st0" width="10" height="10"/>
	<rect y="270" class="st0" width="10" height="10"/>
	<rect x="60" y="270" class="st0" width="10" height="10"/>
	<rect x="100" y="270" class="st0" width="10" height="10"/>
	<rect x="150" y="270" class="st0" width="10" height="10"/>
	<rect x="180" y="270" class="st0" width="10" height="10"/>
	<rect x="210" y="270" class="st0" width="10" height="10"/>
	<rect x="220" y="270" class="st0" width="10" height="10"/>
	<rect x="230" y="270" class="st0" width="10" height="10"/>
	<rect x="250" y="270" class="st0" width="10" height="10"/>
	<rect x="260" y="270" class="st0" width="10" height="10"/>
	<rect x="280" y="270" class="st0" width="10" height="10"/>
	<rect y="280" class="st0" width="10" height="10"/>
	<rect x="10" y="280" class="st0" width="10" height="10"/>
	<rect x="20" y="280" class="st0" width="10" height="10"/>
	<rect x="30" y="280" class="st0" width="10" height="10"/>
	<rect x="40" y="280" class="st0" width="10" height="10"/>
	<rect x="50" y="280" class="st0" width="10" height="10"/>
	<rect x="60" y="280" class="st0" width="10" height="10"/>
	<rect x="80" y="280" class="st0" width="10" height="10"/>
	<rect x="90" y="280" class="st0" width="10" height="10"/>
	<rect x="100" y="280" class="st0" width="10" height="10"/>
	<rect x="140" y="280" class="st0" width="10" height="10"/>
	<rect x="150" y="280" class="st0" width="10" height="10"/>
	<rect x="160" y="280" class="st0" width="10" height="10"/>
	<rect x="190" y="280" class="st0" width="10" height="10"/>
	<rect x="200" y="280" class="st0" width="10" height="10"/>
	<rect x="210" y="280" class="st0" width="10" height="10"/>
	<rect x="240" y="280" class="st0" width="10" height="10"/>
	<rect x="250" y="280" class="st0" width="10" height="10"/>
</g>
</svg>
